<?xml version="1.0" encoding="utf-8" standalone="no"?>
<!DOCTYPE svg PUBLIC "-//W3C//DTD SVG 1.1//EN"
  "http://www.w3.org/Graphics/SVG/1.1/DTD/svg11.dtd">
<!-- Created with matplotlib (http://matplotlib.org/) -->
<svg height="267pt" version="1.1" viewBox="0 0 267 267" width="267pt" xmlns="http://www.w3.org/2000/svg" xmlns:xlink="http://www.w3.org/1999/xlink">
 <defs>
  <style type="text/css">
*{stroke-linecap:butt;stroke-linejoin:round;}
  </style>
 </defs>
 <g id="figure_1">
  <g id="patch_1">
   <path d="
M0 267.3
L267.3 267.3
L267.3 5.68434e-14
L0 5.68434e-14
z
" style="fill:#ffffff;"/>
  </g>
  <g id="axes_1">
   <g id="patch_2">
    <path clip-path="url(#pdbf2c17509)" d="
M133.65 133.65
L133.65 133.65
L133.65 133.65
L133.65 133.65
L133.65 133.65
L133.65 133.65
L133.65 133.65
L133.65 133.65
L133.65 133.65
L133.65 133.65
L133.65 133.65
L133.65 133.65
L133.65 133.65
L133.65 133.65
L133.65 133.65
L133.65 133.65
L133.65 133.65
L133.65 133.65
L133.65 133.65
L133.65 133.65
L133.65 133.65
L133.65 133.65
L133.65 133.65
L133.65 133.65
L133.65 133.65
L133.65 133.65
L133.65 133.65
L133.65 133.65
L133.65 133.65
L133.65 133.65
L133.65 133.65
L133.65 133.65
L133.65 133.65
L133.65 133.65
L133.65 133.65
L133.65 133.65
L133.65 133.65
L133.65 133.65
L133.65 133.65
L133.65 133.65
L133.65 133.65
L133.65 133.65
L133.65 133.65
L133.65 133.65
L133.65 133.65
L133.65 133.65
L133.65 133.65
L133.65 133.65
L133.65 133.65
L133.65 133.65
L133.65 133.65
L133.65 133.65
L133.65 133.65
L133.65 133.65
L133.65 133.65
L133.65 133.65
L133.65 133.65
L133.65 133.65
L133.65 133.65
L133.65 133.65
L133.65 133.65
L133.65 133.65
L133.65 133.65
L133.65 133.65
L133.65 133.65
L133.65 133.65
L133.65 133.65
L133.65 133.65
L133.65 133.65
L133.65 133.65
L133.65 133.65
L133.65 133.65
L133.65 133.65
L133.65 133.65
L133.65 133.65
L133.65 133.65
L133.65 133.65
L133.65 133.65
L133.65 133.65
L133.65 133.65
L133.65 133.65
L133.65 133.65
L133.65 133.65
L133.65 133.65
L133.65 133.65
L133.65 133.65
L133.65 133.65
L133.65 133.65
L133.65 133.65
L133.65 133.65
L133.65 133.65
L133.65 133.65
L133.65 133.65
L133.65 133.65
L133.65 133.65
L133.65 133.65
L133.65 133.65
L133.65 133.65
L133.65 133.65
L133.65 133.65
L133.65 133.65
L133.65 133.65
L133.65 133.65
L133.65 133.65
L133.65 133.65
L133.65 133.65
L133.65 133.65
L133.65 133.65
L133.65 133.65
L133.65 133.65
L133.65 133.65
L133.65 133.65
L133.65 133.65
L133.65 133.65
L133.65 133.65
L133.65 133.65
L133.65 133.65
L133.65 133.65
L133.65 133.65
L133.65 133.65
L133.65 133.65
L133.65 133.65
L133.65 133.65
L133.65 133.65
L133.65 133.65
L133.65 133.65
L133.65 133.65
L133.65 133.65
L133.65 133.65
L133.65 133.65
L133.65 133.65
L133.65 133.65
L133.65 133.65
L133.65 133.65
L133.65 133.65
L133.65 133.65
L133.65 133.65
L133.65 133.65
L133.65 133.65
L133.65 133.65
L133.65 133.65
L133.65 133.65
L133.65 133.65
L133.65 133.65
L133.65 133.65
L133.65 133.65
L133.65 133.65
L133.65 133.65
L133.65 133.65
L133.65 133.65
L133.65 133.65
L133.65 133.65
L133.65 133.65
L133.65 133.65
L133.65 133.65
L133.65 133.65
L133.65 133.65
L133.65 133.65
L133.65 133.65
L133.65 133.65
L133.65 133.65
L133.65 133.65
L133.65 133.65
L133.65 133.65
L133.65 133.65
L133.65 133.65
L133.65 133.65
L133.65 133.65
L133.65 133.65
L133.65 133.65
L133.65 133.65
L133.65 133.65
L133.65 133.65
L133.65 133.65
L133.65 133.65
L133.65 133.65
L133.65 133.65
L133.65 133.65
L133.65 133.65
L133.65 133.65
L133.65 133.65
L133.65 133.65
L133.65 133.65
L133.65 133.65
L133.65 133.65
L133.65 133.65
L133.65 133.65
L133.65 133.65
L133.65 133.65
L133.65 133.65
L133.65 133.65
L133.65 133.65
L133.65 133.65
L133.65 133.65
L133.65 133.65
L133.65 133.65
L133.65 133.65
L133.65 133.65
L133.65 133.65
L133.65 133.65
L133.65 133.65
L133.65 133.65
L133.65 133.65
L133.65 133.65
L133.65 133.65
L133.65 133.65
L133.65 133.65
L133.65 133.65
L133.65 133.65
L133.65 133.65
L133.65 133.65
L133.65 133.65
L133.65 133.65
L133.65 133.65
L133.65 133.65
L133.65 133.65
L133.65 133.65
L133.65 133.65
L133.65 133.65
L133.65 133.65
L133.65 133.65
L133.65 133.65
L133.65 133.65
L133.65 133.65
L133.65 133.65
L133.65 133.65
L133.65 133.65
L133.65 133.65
L133.65 133.65
L133.65 133.65
L133.65 133.65
L133.65 133.65
L133.65 133.65
L133.65 133.65
L133.65 133.65
L133.65 133.65
L133.65 133.65
L133.65 133.65
L133.65 133.65
L133.65 133.65
L133.65 133.65
L133.65 133.65
L133.65 133.65
L133.65 133.65
L133.65 133.65
L133.65 133.65
L133.65 133.65
L133.65 133.65
L133.65 133.65
L133.65 133.65
L133.65 133.65
L133.65 133.65
L133.65 133.65
L133.65 133.65
L133.65 133.65
L133.65 133.65
L133.65 133.65
L133.65 133.65
L133.65 133.65
L133.65 133.65
L133.65 133.65
L133.65 133.65
L133.65 133.65
L133.65 133.65
L133.65 133.65
L133.65 133.65
L133.65 133.65
L133.65 133.65
L133.65 133.65
L133.65 133.65
L133.65 133.65
L133.65 133.65
L133.65 133.65
L133.65 133.65
L133.65 133.65
L133.65 133.65
L133.65 133.65
L133.65 133.65
L133.65 133.65
L133.65 133.65
L133.65 133.65
L133.65 133.65
L133.65 133.65
L133.65 133.65
L133.65 133.65
L133.65 133.65
L133.65 133.65
L133.65 133.65
L133.65 133.65
L133.65 133.65
L133.65 133.65
L133.65 133.65
L133.65 133.65
L133.65 133.65
L133.65 133.65
L133.65 133.65
L133.65 133.65
L133.65 133.65
L133.65 133.65
L133.65 133.65
L133.65 133.65
L133.65 133.65
L133.65 133.65
L133.65 133.65
L133.65 133.65
L133.65 133.65
L133.65 133.65
L133.65 133.65
L133.65 133.65
L133.65 133.65
L133.65 133.65
L133.65 133.65
L133.65 133.65
L133.65 133.65
L133.65 133.65
L133.65 133.65
L133.65 133.65
L133.65 133.65
L133.65 133.65
L133.65 133.65
L133.65 133.65
L133.65 133.65
L133.65 133.65
L133.65 133.65
L133.65 133.65
L133.65 133.65
L133.65 133.65
L133.65 133.65
L133.65 133.65
L133.65 133.65
L133.65 133.65
L133.65 133.65
L133.65 133.65
L133.65 133.65
L133.65 133.65
L133.65 133.65
L133.65 133.65
L133.65 133.65
L133.65 133.65
L133.65 133.65
L133.65 133.65
L133.65 133.65
L133.65 133.65
L133.65 133.65
L133.65 133.65
L133.65 133.65
L133.65 133.65
L133.65 133.65
L133.65 133.65
L133.65 133.65
L133.65 133.65
L133.65 133.65
L133.65 133.65
L133.65 133.65
L133.65 133.65
L133.65 133.65
L133.65 133.65
L133.65 133.65
L133.65 133.65
L133.65 133.65
L133.65 133.65
L133.65 133.65
L133.65 133.65
L133.65 133.65
L133.65 133.65
L133.65 133.65
L133.65 133.65
L133.65 133.65
L133.65 133.65
L133.65 133.65
L133.65 133.65
L133.65 133.65
L133.65 133.65
L133.65 133.65
L133.65 133.65
L133.65 133.65
L133.65 133.65
L133.65 133.65
L133.65 133.65
L133.65 133.65
L133.65 133.65
L133.65 133.65
L133.65 133.65
L133.65 133.65
L133.65 133.65
L133.65 133.65
L133.65 133.65
L133.65 133.65
L133.65 133.65
L133.65 133.65
L133.65 133.65
L133.65 133.65
L133.65 133.65
L133.65 133.65
L133.65 133.65
L133.65 133.65
L133.65 133.65
L133.65 133.65
L133.65 133.65
L133.65 133.65
z
" style="opacity:0.2;stroke:#000000;"/>
   </g>
   <g id="LineCollection_1">
    <defs>
     <path d="
M133.65 -133.65
L133.65 -133.65
L133.65 -133.65
L133.65 -133.65
L133.65 -133.65
L133.65 -133.65
L133.65 -133.65
L133.65 -133.65
L133.65 -133.65
L133.65 -133.65
L133.65 -133.65
L133.65 -133.65
L133.65 -133.65
L133.65 -133.65
L133.65 -133.65
L133.65 -133.65
L133.65 -133.65
L133.65 -133.65
L133.65 -133.65
L133.65 -133.65
L133.65 -133.65
L133.65 -133.65
L133.65 -133.65
L133.65 -133.65
L133.65 -133.65
L133.65 -133.65
L133.65 -133.65
L133.65 -133.65
L133.65 -133.65
L133.65 -133.65
L133.65 -133.65
L133.65 -133.65
L133.65 -133.65
L133.65 -133.65
L133.65 -133.65
L133.65 -133.65
L133.65 -133.65
L133.65 -133.65
L133.65 -133.65
L133.65 -133.65
L133.65 -133.65
L133.65 -133.65
L133.65 -133.65
L133.65 -133.65
L133.65 -133.65
L133.65 -133.65
L133.65 -133.65
L133.65 -133.65
L133.65 -133.65
L133.65 -133.65
L133.65 -133.65
L133.65 -133.65
L133.65 -133.65
L133.65 -133.65
L133.65 -133.65
L133.65 -133.65
L133.65 -133.65
L133.65 -133.65
L133.65 -133.65
L133.65 -133.65
L133.65 -133.65
L133.65 -133.65
L133.65 -133.65
L133.65 -133.65
L133.65 -133.65
L133.65 -133.65
L133.65 -133.65
L133.65 -133.65
L133.65 -133.65
L133.65 -133.65
L133.65 -133.65
L133.65 -133.65
L133.65 -133.65
L133.65 -133.65
L133.65 -133.65
L133.65 -133.65
L133.65 -133.65" id="C0_0_4eac0fdddd"/>
     <path d="
M133.65 -133.65
L133.65 -133.65" id="C0_1_679f2376a8"/>
     <path d="
M133.65 -133.65
L150.375 -108.409" id="C0_2_ae6a96e20b"/>
     <path d="
M133.65 -133.65
L145.452 -161.534" id="C0_3_4e4dbdf28e"/>
     <path d="
M133.65 -133.65
L117.71 -159.394" id="C0_4_9c0fcbe35f"/>
     <path d="
M133.65 -133.65
L105.416 -144.588" id="C0_5_56b91fdaa4"/>
     <path d="
M127.629 -103.976
L129.119 -103.712
L130.621 -103.523
L132.131 -103.409
L133.644 -103.371
L135.157 -103.408
L136.667 -103.522
L138.169 -103.71
L139.66 -103.973
L141.135 -104.311
L142.592 -104.722
L144.027 -105.205
L145.436 -105.759
L146.815 -106.383
L148.161 -107.075
L149.471 -107.833
L150.742 -108.656
L151.97 -109.542
L153.152 -110.487
L154.285 -111.491
L155.367 -112.55
L156.394 -113.662
L157.365 -114.823
L158.276 -116.032
L159.126 -117.285
L159.912 -118.579
L160.632 -119.91
L161.285 -121.276
L161.869 -122.673
L162.382 -124.097
L162.824 -125.545
L163.193 -127.013
L163.324 -127.629" id="C0_6_f55522463a"/>
     <path d="
M150.375 -108.409
L150.375 -108.409" id="C0_7_542c245d62"/>
     <path d="
M127.629 -103.976
L106.657 -79.4406" id="C0_8_d98c68e79e"/>
     <path d="
M155.71 -112.909
L180.83 -95.6847" id="C0_9_b8d4c887e3"/>
     <path d="
M159.872 -118.51
L190.119 -111.774" id="C0_a_0e56068a78"/>
     <path d="
M161.713 -122.278
L193.177 -122.522" id="C0_b_0d85da533e"/>
     <path d="
M162.642 -124.916
L194.093 -129.922" id="C0_c_8feed300d7"/>
     <path d="
M163.324 -127.629
L194.093 -137.378" id="C0_d_3db93aa5a7"/>
     <path d="
M75.4036 -117.077
L76.3047 -114.187
L77.3491 -111.345
L78.5342 -108.559
L79.8571 -105.836
L81.3145 -103.182
L82.9026 -100.605
L84.6176 -98.1097
L86.4552 -95.7035
L88.4107 -93.3922
L90.4793 -91.1814
L92.6558 -89.0769
L94.9347 -87.0837
L97.3105 -85.207
L99.777 -83.4513
L102.328 -81.8211
L104.958 -80.3204
L107.659 -78.9531
L110.425 -77.7224
L113.249 -76.6315
L116.125 -75.6832
L119.044 -74.8797
L121.999 -74.2232
L124.984 -73.7151
L127.99 -73.3569
L131.011 -73.1494
L134.038 -73.0931
L137.064 -73.1882
L140.081 -73.4343
L143.083 -73.831
L146.061 -74.3772
L149.008 -75.0716
L151.916 -75.9124
L154.779 -76.8975
L155.526 -77.1812" id="C0_e_49bd791aaa"/>
     <path d="
M106.657 -79.4406
L106.657 -79.4406" id="C0_f_2b20664583"/>
     <path d="
M75.4036 -117.077
L42.8128 -133.65" id="C0_10_2423d0be26"/>
     <path d="
M77.1812 -111.774
L43.5013 -122.487" id="C0_11_9dd025ff5e"/>
     <path d="
M79.4406 -106.657
L45.5564 -111.494" id="C0_12_0a75c85f17"/>
     <path d="
M82.1624 -101.77
L48.9468 -100.836" id="C0_13_4d5b3a9ee5"/>
     <path d="
M85.3236 -97.1556
L53.6213 -90.6755" id="C0_14_aa939b4de9"/>
     <path d="
M88.897 -92.8522
L59.509 -81.1666" id="C0_15_9a6b46eac8"/>
     <path d="
M92.8522 -88.897
L66.5205 -72.4534" id="C0_16_1db5f65d13"/>
     <path d="
M97.1556 -85.3236
L74.5496 -64.6678" id="C0_17_e778325920"/>
     <path d="
M101.77 -82.1624
L83.4747 -57.9279" id="C0_18_d2c88e1caf"/>
     <path d="
M106.657 -79.4406
L93.1604 -52.3359" id="C0_19_e3f7c4f106"/>
     <path d="
M111.774 -77.1812
L103.46 -47.9765" id="C0_1a_029fd880f9"/>
     <path d="
M117.077 -75.4036
L114.217 -44.9158" id="C0_1b_5f4aea7b0c"/>
     <path d="
M122.522 -74.123
L125.269 -43.2003" id="C0_1c_683507b2d7"/>
     <path d="
M128.062 -73.3502
L136.447 -42.8559" id="C0_1d_fdc6cd4409"/>
     <path d="
M133.65 -73.0919
L147.584 -43.8878" id="C0_1e_27b25ceb80"/>
     <path d="
M139.238 -73.3502
L158.509 -46.2804" id="C0_1f_dbd14b5031"/>
     <path d="
M144.778 -74.123
L169.057 -49.9975" id="C0_20_abe8a95f68"/>
     <path d="
M150.223 -75.4036
L179.069 -54.9827" id="C0_21_875889afc5"/>
     <path d="
M155.526 -77.1812
L188.392 -61.1603" id="C0_22_a1391e879d"/>
     <path d="
M177.125 -91.4934
L179.178 -93.719
L181.117 -96.0443
L182.937 -98.4637
L184.131 -100.2" id="C0_23_c04f9203b0"/>
     <path d="
M180.83 -95.6847
L180.83 -95.6847" id="C0_24_13e5a747aa"/>
     <path d="
M177.125 -91.4934
L196.885 -68.4369" id="C0_25_e6a2f3cc46"/>
     <path d="
M180.83 -95.6847
L204.42 -76.702" id="C0_26_12f7369c20"/>
     <path d="
M184.131 -100.2
L210.881 -85.8304" id="C0_27_3fc42173f6"/>
     <path d="
M189.048 -109.189
L190.202 -111.989
L191.069 -114.405" id="C0_28_cd5509e179"/>
     <path d="
M190.119 -111.774
L190.119 -111.774" id="C0_29_4a420c92b7"/>
     <path d="
M189.048 -109.189
L216.172 -95.6836" id="C0_2a_c8ab775fe3"/>
     <path d="
M191.069 -114.405
L220.213 -106.112" id="C0_2b_cf6c078927"/>
     <path d="
M193.177 -122.522" id="C0_2c_bc29edfabc"/>
     <path d="
M193.177 -122.522
L193.177 -122.522" id="C0_2d_18ff74c272"/>
     <path d="
M193.177 -122.522
L222.941 -116.959" id="C0_2e_5d206c84b3"/>
     <path d="
M194.093 -129.922" id="C0_2f_318d523818"/>
     <path d="
M194.093 -129.922
L194.093 -129.922" id="C0_30_1241f741c8"/>
     <path d="
M194.093 -129.922
L224.315 -128.058" id="C0_31_432aa7c6ff"/>
     <path d="
M194.093 -137.378" id="C0_32_8727721665"/>
     <path d="
M194.093 -137.378
L194.093 -137.378" id="C0_33_2c94654b06"/>
     <path d="
M194.093 -137.378
L224.315 -139.242" id="C0_34_dec087afde"/>
     <path d="
M152.633 -157.24
L151.43 -158.159
L150.183 -159.017
L148.894 -159.812
L147.568 -160.541
L146.206 -161.203
L144.814 -161.796
L143.393 -162.319
L141.948 -162.77
L140.482 -163.148
L138.999 -163.453
L137.503 -163.683
L137.371 -163.7" id="C0_35_48bab073b9"/>
     <path d="
M145.452 -161.534
L145.452 -161.534" id="C0_36_787a54c646"/>
     <path d="
M152.633 -157.24
L175.807 -177.125" id="C0_37_7a51a6c692"/>
     <path d="
M137.371 -163.7
L135.515 -194.179" id="C0_38_3aa5ee7f11"/>
     <path d="
M190.766 -153.777
L189.688 -156.606
L188.471 -159.378
L187.117 -162.086
L185.629 -164.723
L184.011 -167.282
L182.267 -169.757
L180.401 -172.141
L178.419 -174.43
L176.325 -176.616
L174.124 -178.696
L171.823 -180.662
L169.425 -182.511
L166.938 -184.238
L164.368 -185.839
L161.722 -187.309
L159.005 -188.645
L156.225 -189.843
L153.388 -190.901
L152.008 -191.358" id="C0_39_81a779391a"/>
     <path d="
M175.807 -177.125
L175.807 -177.125" id="C0_3a_e71d667871"/>
     <path d="
M190.766 -153.777
L222.941 -150.341" id="C0_3b_34a6bb3b25"/>
     <path d="
M188.665 -158.961
L220.213 -161.188" id="C0_3c_2de9b94de9"/>
     <path d="
M186.095 -163.929
L216.172 -171.616" id="C0_3d_9d87b3db4c"/>
     <path d="
M183.077 -168.639
L210.881 -181.47" id="C0_3e_3a63e74ac6"/>
     <path d="
M179.638 -173.05
L204.42 -190.598" id="C0_3f_14f27fff2f"/>
     <path d="
M175.807 -177.125
L196.885 -198.863" id="C0_40_2492c2e937"/>
     <path d="
M171.615 -180.83
L188.392 -206.14" id="C0_41_e8fe88c2fe"/>
     <path d="
M167.1 -184.131
L179.069 -212.317" id="C0_42_46d73cbfb8"/>
     <path d="
M162.3 -187.002
L169.057 -217.302" id="C0_43_b5a093a063"/>
     <path d="
M157.255 -189.418
L158.509 -221.02" id="C0_44_ec5ba19eec"/>
     <path d="
M152.008 -191.358
L147.584 -223.412" id="C0_45_d2d3af0d86"/>
     <path d="
M135.515 -194.179" id="C0_46_d6b130613d"/>
     <path d="
M135.515 -194.179
L135.515 -194.179" id="C0_47_ad544df06d"/>
     <path d="
M135.515 -194.179
L136.447 -224.444" id="C0_48_5a61116137"/>
     <path d="
M122.063 -161.624
L120.679 -161.01
L119.328 -160.328
L118.012 -159.579
L116.736 -158.765
L115.502 -157.888
L114.313 -156.951
L113.773 -156.492" id="C0_49_f34b33e6c8"/>
     <path d="
M117.71 -159.394
L117.71 -159.394" id="C0_4a_b17a7284c1"/>
     <path d="
M122.063 -161.624
L113.523 -190.766" id="C0_4b_a5754243fa"/>
     <path d="
M113.773 -156.492
L91.4934 -177.125" id="C0_4c_c33ea97c96"/>
     <path d="
M124.361 -193.491
L121.382 -192.952
L118.433 -192.265
L115.523 -191.431
L112.657 -190.453
L109.845 -189.333
L107.091 -188.074
L104.405 -186.678
L103.371 -186.095" id="C0_4d_e28c892a49"/>
     <path d="
M113.523 -190.766
L113.523 -190.766" id="C0_4e_cd6c6b2c5c"/>
     <path d="
M124.361 -193.491
L125.269 -224.1" id="C0_4f_36ec432abd"/>
     <path d="
M118.879 -192.379
L114.217 -222.384" id="C0_50_8f0a696a2b"/>
     <path d="
M113.523 -190.766
L103.46 -219.324" id="C0_51_6e1ae9e047"/>
     <path d="
M108.339 -188.665
L93.1604 -214.964" id="C0_52_2e4a244852"/>
     <path d="
M103.371 -186.095
L83.4747 -209.372" id="C0_53_e10f45688d"/>
     <path d="
M93.5463 -179.026
L91.3285 -176.965
L89.5306 -175.132" id="C0_54_40290f7522"/>
     <path d="
M91.4934 -177.125
L91.4934 -177.125" id="C0_55_4dde2c750a"/>
     <path d="
M93.5463 -179.026
L74.5496 -202.632" id="C0_56_fb06ed1c71"/>
     <path d="
M89.5306 -175.132
L66.5205 -194.847" id="C0_57_4646391de0"/>
     <path d="
M105.416 -144.588" id="C0_58_360a6288dc"/>
     <path d="
M105.416 -144.588
L105.416 -144.588" id="C0_59_1b6a1d5982"/>
     <path d="
M105.416 -144.588
L77.1812 -155.526" id="C0_5a_0f1d46db56"/>
     <path d="
M82.1624 -165.53
L80.6335 -162.917
L79.237 -160.23
L77.9765 -157.478
L76.8552 -154.665
L75.8759 -151.8
L75.0409 -148.89
L74.3525 -145.942
L74.123 -144.778" id="C0_5b_924155833a"/>
     <path d="
M77.1812 -155.526
L77.1812 -155.526" id="C0_5c_e8e2d48d47"/>
     <path d="
M82.1624 -165.53
L59.509 -186.133" id="C0_5d_896f976f28"/>
     <path d="
M79.4406 -160.643
L53.6213 -176.624" id="C0_5e_d0bebc11d5"/>
     <path d="
M77.1812 -155.526
L48.9468 -166.464" id="C0_5f_17d2e1981f"/>
     <path d="
M75.4036 -150.223
L45.5564 -155.806" id="C0_60_7db1e1080b"/>
     <path d="
M74.123 -144.778
L43.5013 -144.813" id="C0_61_4540826250"/>
    </defs>
    <g clip-path="url(#pdbf2c17509)">
     <use style="fill:none;stroke:#000000;stroke-width:0.75;" x="0.0" xlink:href="#C0_0_4eac0fdddd" y="267.3"/>
    </g>
    <g clip-path="url(#pdbf2c17509)">
     <use style="fill:none;stroke:#000000;stroke-width:0.75;" x="0.0" xlink:href="#C0_1_679f2376a8" y="267.3"/>
    </g>
    <g clip-path="url(#pdbf2c17509)">
     <use style="fill:none;stroke:#000000;stroke-width:0.75;" x="0.0" xlink:href="#C0_2_ae6a96e20b" y="267.3"/>
    </g>
    <g clip-path="url(#pdbf2c17509)">
     <use style="fill:none;stroke:#000000;stroke-width:0.75;" x="0.0" xlink:href="#C0_3_4e4dbdf28e" y="267.3"/>
    </g>
    <g clip-path="url(#pdbf2c17509)">
     <use style="fill:none;stroke:#000000;stroke-width:0.75;" x="0.0" xlink:href="#C0_4_9c0fcbe35f" y="267.3"/>
    </g>
    <g clip-path="url(#pdbf2c17509)">
     <use style="fill:none;stroke:#000000;stroke-width:0.75;" x="0.0" xlink:href="#C0_5_56b91fdaa4" y="267.3"/>
    </g>
    <g clip-path="url(#pdbf2c17509)">
     <use style="fill:none;stroke:#000000;stroke-width:0.75;" x="0.0" xlink:href="#C0_6_f55522463a" y="267.3"/>
    </g>
    <g clip-path="url(#pdbf2c17509)">
     <use style="fill:none;stroke:#000000;stroke-width:0.75;" x="0.0" xlink:href="#C0_7_542c245d62" y="267.3"/>
    </g>
    <g clip-path="url(#pdbf2c17509)">
     <use style="fill:none;stroke:#000000;stroke-width:0.75;" x="0.0" xlink:href="#C0_8_d98c68e79e" y="267.3"/>
    </g>
    <g clip-path="url(#pdbf2c17509)">
     <use style="fill:none;stroke:#000000;stroke-width:0.75;" x="0.0" xlink:href="#C0_9_b8d4c887e3" y="267.3"/>
    </g>
    <g clip-path="url(#pdbf2c17509)">
     <use style="fill:none;stroke:#000000;stroke-width:0.75;" x="0.0" xlink:href="#C0_a_0e56068a78" y="267.3"/>
    </g>
    <g clip-path="url(#pdbf2c17509)">
     <use style="fill:none;stroke:#000000;stroke-width:0.75;" x="0.0" xlink:href="#C0_b_0d85da533e" y="267.3"/>
    </g>
    <g clip-path="url(#pdbf2c17509)">
     <use style="fill:none;stroke:#000000;stroke-width:0.75;" x="0.0" xlink:href="#C0_c_8feed300d7" y="267.3"/>
    </g>
    <g clip-path="url(#pdbf2c17509)">
     <use style="fill:none;stroke:#000000;stroke-width:0.75;" x="0.0" xlink:href="#C0_d_3db93aa5a7" y="267.3"/>
    </g>
    <g clip-path="url(#pdbf2c17509)">
     <use style="fill:none;stroke:#000000;stroke-width:0.75;" x="0.0" xlink:href="#C0_e_49bd791aaa" y="267.3"/>
    </g>
    <g clip-path="url(#pdbf2c17509)">
     <use style="fill:none;stroke:#000000;stroke-width:0.75;" x="0.0" xlink:href="#C0_f_2b20664583" y="267.3"/>
    </g>
    <g clip-path="url(#pdbf2c17509)">
     <use style="fill:none;stroke:#000000;stroke-width:0.75;" x="0.0" xlink:href="#C0_10_2423d0be26" y="267.3"/>
    </g>
    <g clip-path="url(#pdbf2c17509)">
     <use style="fill:none;stroke:#000000;stroke-width:0.75;" x="0.0" xlink:href="#C0_11_9dd025ff5e" y="267.3"/>
    </g>
    <g clip-path="url(#pdbf2c17509)">
     <use style="fill:none;stroke:#000000;stroke-width:0.75;" x="0.0" xlink:href="#C0_12_0a75c85f17" y="267.3"/>
    </g>
    <g clip-path="url(#pdbf2c17509)">
     <use style="fill:none;stroke:#000000;stroke-width:0.75;" x="0.0" xlink:href="#C0_13_4d5b3a9ee5" y="267.3"/>
    </g>
    <g clip-path="url(#pdbf2c17509)">
     <use style="fill:none;stroke:#000000;stroke-width:0.75;" x="0.0" xlink:href="#C0_14_aa939b4de9" y="267.3"/>
    </g>
    <g clip-path="url(#pdbf2c17509)">
     <use style="fill:none;stroke:#000000;stroke-width:0.75;" x="0.0" xlink:href="#C0_15_9a6b46eac8" y="267.3"/>
    </g>
    <g clip-path="url(#pdbf2c17509)">
     <use style="fill:none;stroke:#000000;stroke-width:0.75;" x="0.0" xlink:href="#C0_16_1db5f65d13" y="267.3"/>
    </g>
    <g clip-path="url(#pdbf2c17509)">
     <use style="fill:none;stroke:#000000;stroke-width:0.75;" x="0.0" xlink:href="#C0_17_e778325920" y="267.3"/>
    </g>
    <g clip-path="url(#pdbf2c17509)">
     <use style="fill:none;stroke:#000000;stroke-width:0.75;" x="0.0" xlink:href="#C0_18_d2c88e1caf" y="267.3"/>
    </g>
    <g clip-path="url(#pdbf2c17509)">
     <use style="fill:none;stroke:#000000;stroke-width:0.75;" x="0.0" xlink:href="#C0_19_e3f7c4f106" y="267.3"/>
    </g>
    <g clip-path="url(#pdbf2c17509)">
     <use style="fill:none;stroke:#000000;stroke-width:0.75;" x="0.0" xlink:href="#C0_1a_029fd880f9" y="267.3"/>
    </g>
    <g clip-path="url(#pdbf2c17509)">
     <use style="fill:none;stroke:#000000;stroke-width:0.75;" x="0.0" xlink:href="#C0_1b_5f4aea7b0c" y="267.3"/>
    </g>
    <g clip-path="url(#pdbf2c17509)">
     <use style="fill:none;stroke:#000000;stroke-width:0.75;" x="0.0" xlink:href="#C0_1c_683507b2d7" y="267.3"/>
    </g>
    <g clip-path="url(#pdbf2c17509)">
     <use style="fill:none;stroke:#000000;stroke-width:0.75;" x="0.0" xlink:href="#C0_1d_fdc6cd4409" y="267.3"/>
    </g>
    <g clip-path="url(#pdbf2c17509)">
     <use style="fill:none;stroke:#000000;stroke-width:0.75;" x="0.0" xlink:href="#C0_1e_27b25ceb80" y="267.3"/>
    </g>
    <g clip-path="url(#pdbf2c17509)">
     <use style="fill:none;stroke:#000000;stroke-width:0.75;" x="0.0" xlink:href="#C0_1f_dbd14b5031" y="267.3"/>
    </g>
    <g clip-path="url(#pdbf2c17509)">
     <use style="fill:none;stroke:#000000;stroke-width:0.75;" x="0.0" xlink:href="#C0_20_abe8a95f68" y="267.3"/>
    </g>
    <g clip-path="url(#pdbf2c17509)">
     <use style="fill:none;stroke:#000000;stroke-width:0.75;" x="0.0" xlink:href="#C0_21_875889afc5" y="267.3"/>
    </g>
    <g clip-path="url(#pdbf2c17509)">
     <use style="fill:none;stroke:#000000;stroke-width:0.75;" x="0.0" xlink:href="#C0_22_a1391e879d" y="267.3"/>
    </g>
    <g clip-path="url(#pdbf2c17509)">
     <use style="fill:none;stroke:#000000;stroke-width:0.75;" x="0.0" xlink:href="#C0_23_c04f9203b0" y="267.3"/>
    </g>
    <g clip-path="url(#pdbf2c17509)">
     <use style="fill:none;stroke:#000000;stroke-width:0.75;" x="0.0" xlink:href="#C0_24_13e5a747aa" y="267.3"/>
    </g>
    <g clip-path="url(#pdbf2c17509)">
     <use style="fill:none;stroke:#000000;stroke-width:0.75;" x="0.0" xlink:href="#C0_25_e6a2f3cc46" y="267.3"/>
    </g>
    <g clip-path="url(#pdbf2c17509)">
     <use style="fill:none;stroke:#000000;stroke-width:0.75;" x="0.0" xlink:href="#C0_26_12f7369c20" y="267.3"/>
    </g>
    <g clip-path="url(#pdbf2c17509)">
     <use style="fill:none;stroke:#000000;stroke-width:0.75;" x="0.0" xlink:href="#C0_27_3fc42173f6" y="267.3"/>
    </g>
    <g clip-path="url(#pdbf2c17509)">
     <use style="fill:none;stroke:#000000;stroke-width:0.75;" x="0.0" xlink:href="#C0_28_cd5509e179" y="267.3"/>
    </g>
    <g clip-path="url(#pdbf2c17509)">
     <use style="fill:none;stroke:#000000;stroke-width:0.75;" x="0.0" xlink:href="#C0_29_4a420c92b7" y="267.3"/>
    </g>
    <g clip-path="url(#pdbf2c17509)">
     <use style="fill:none;stroke:#000000;stroke-width:0.75;" x="0.0" xlink:href="#C0_2a_c8ab775fe3" y="267.3"/>
    </g>
    <g clip-path="url(#pdbf2c17509)">
     <use style="fill:none;stroke:#000000;stroke-width:0.75;" x="0.0" xlink:href="#C0_2b_cf6c078927" y="267.3"/>
    </g>
    <g clip-path="url(#pdbf2c17509)">
     <use style="fill:none;stroke:#000000;stroke-width:0.75;" x="0.0" xlink:href="#C0_2c_bc29edfabc" y="267.3"/>
    </g>
    <g clip-path="url(#pdbf2c17509)">
     <use style="fill:none;stroke:#000000;stroke-width:0.75;" x="0.0" xlink:href="#C0_2d_18ff74c272" y="267.3"/>
    </g>
    <g clip-path="url(#pdbf2c17509)">
     <use style="fill:none;stroke:#000000;stroke-width:0.75;" x="0.0" xlink:href="#C0_2e_5d206c84b3" y="267.3"/>
    </g>
    <g clip-path="url(#pdbf2c17509)">
     <use style="fill:none;stroke:#000000;stroke-width:0.75;" x="0.0" xlink:href="#C0_2f_318d523818" y="267.3"/>
    </g>
    <g clip-path="url(#pdbf2c17509)">
     <use style="fill:none;stroke:#000000;stroke-width:0.75;" x="0.0" xlink:href="#C0_30_1241f741c8" y="267.3"/>
    </g>
    <g clip-path="url(#pdbf2c17509)">
     <use style="fill:none;stroke:#000000;stroke-width:0.75;" x="0.0" xlink:href="#C0_31_432aa7c6ff" y="267.3"/>
    </g>
    <g clip-path="url(#pdbf2c17509)">
     <use style="fill:none;stroke:#000000;stroke-width:0.75;" x="0.0" xlink:href="#C0_32_8727721665" y="267.3"/>
    </g>
    <g clip-path="url(#pdbf2c17509)">
     <use style="fill:none;stroke:#000000;stroke-width:0.75;" x="0.0" xlink:href="#C0_33_2c94654b06" y="267.3"/>
    </g>
    <g clip-path="url(#pdbf2c17509)">
     <use style="fill:none;stroke:#000000;stroke-width:0.75;" x="0.0" xlink:href="#C0_34_dec087afde" y="267.3"/>
    </g>
    <g clip-path="url(#pdbf2c17509)">
     <use style="fill:none;stroke:#000000;stroke-width:0.75;" x="0.0" xlink:href="#C0_35_48bab073b9" y="267.3"/>
    </g>
    <g clip-path="url(#pdbf2c17509)">
     <use style="fill:none;stroke:#000000;stroke-width:0.75;" x="0.0" xlink:href="#C0_36_787a54c646" y="267.3"/>
    </g>
    <g clip-path="url(#pdbf2c17509)">
     <use style="fill:none;stroke:#000000;stroke-width:0.75;" x="0.0" xlink:href="#C0_37_7a51a6c692" y="267.3"/>
    </g>
    <g clip-path="url(#pdbf2c17509)">
     <use style="fill:none;stroke:#000000;stroke-width:0.75;" x="0.0" xlink:href="#C0_38_3aa5ee7f11" y="267.3"/>
    </g>
    <g clip-path="url(#pdbf2c17509)">
     <use style="fill:none;stroke:#000000;stroke-width:0.75;" x="0.0" xlink:href="#C0_39_81a779391a" y="267.3"/>
    </g>
    <g clip-path="url(#pdbf2c17509)">
     <use style="fill:none;stroke:#000000;stroke-width:0.75;" x="0.0" xlink:href="#C0_3a_e71d667871" y="267.3"/>
    </g>
    <g clip-path="url(#pdbf2c17509)">
     <use style="fill:none;stroke:#000000;stroke-width:0.75;" x="0.0" xlink:href="#C0_3b_34a6bb3b25" y="267.3"/>
    </g>
    <g clip-path="url(#pdbf2c17509)">
     <use style="fill:none;stroke:#000000;stroke-width:0.75;" x="0.0" xlink:href="#C0_3c_2de9b94de9" y="267.3"/>
    </g>
    <g clip-path="url(#pdbf2c17509)">
     <use style="fill:none;stroke:#000000;stroke-width:0.75;" x="0.0" xlink:href="#C0_3d_9d87b3db4c" y="267.3"/>
    </g>
    <g clip-path="url(#pdbf2c17509)">
     <use style="fill:none;stroke:#000000;stroke-width:0.75;" x="0.0" xlink:href="#C0_3e_3a63e74ac6" y="267.3"/>
    </g>
    <g clip-path="url(#pdbf2c17509)">
     <use style="fill:none;stroke:#000000;stroke-width:0.75;" x="0.0" xlink:href="#C0_3f_14f27fff2f" y="267.3"/>
    </g>
    <g clip-path="url(#pdbf2c17509)">
     <use style="fill:none;stroke:#000000;stroke-width:0.75;" x="0.0" xlink:href="#C0_40_2492c2e937" y="267.3"/>
    </g>
    <g clip-path="url(#pdbf2c17509)">
     <use style="fill:none;stroke:#000000;stroke-width:0.75;" x="0.0" xlink:href="#C0_41_e8fe88c2fe" y="267.3"/>
    </g>
    <g clip-path="url(#pdbf2c17509)">
     <use style="fill:none;stroke:#000000;stroke-width:0.75;" x="0.0" xlink:href="#C0_42_46d73cbfb8" y="267.3"/>
    </g>
    <g clip-path="url(#pdbf2c17509)">
     <use style="fill:none;stroke:#000000;stroke-width:0.75;" x="0.0" xlink:href="#C0_43_b5a093a063" y="267.3"/>
    </g>
    <g clip-path="url(#pdbf2c17509)">
     <use style="fill:none;stroke:#000000;stroke-width:0.75;" x="0.0" xlink:href="#C0_44_ec5ba19eec" y="267.3"/>
    </g>
    <g clip-path="url(#pdbf2c17509)">
     <use style="fill:none;stroke:#000000;stroke-width:0.75;" x="0.0" xlink:href="#C0_45_d2d3af0d86" y="267.3"/>
    </g>
    <g clip-path="url(#pdbf2c17509)">
     <use style="fill:none;stroke:#000000;stroke-width:0.75;" x="0.0" xlink:href="#C0_46_d6b130613d" y="267.3"/>
    </g>
    <g clip-path="url(#pdbf2c17509)">
     <use style="fill:none;stroke:#000000;stroke-width:0.75;" x="0.0" xlink:href="#C0_47_ad544df06d" y="267.3"/>
    </g>
    <g clip-path="url(#pdbf2c17509)">
     <use style="fill:none;stroke:#000000;stroke-width:0.75;" x="0.0" xlink:href="#C0_48_5a61116137" y="267.3"/>
    </g>
    <g clip-path="url(#pdbf2c17509)">
     <use style="fill:none;stroke:#000000;stroke-width:0.75;" x="0.0" xlink:href="#C0_49_f34b33e6c8" y="267.3"/>
    </g>
    <g clip-path="url(#pdbf2c17509)">
     <use style="fill:none;stroke:#000000;stroke-width:0.75;" x="0.0" xlink:href="#C0_4a_b17a7284c1" y="267.3"/>
    </g>
    <g clip-path="url(#pdbf2c17509)">
     <use style="fill:none;stroke:#000000;stroke-width:0.75;" x="0.0" xlink:href="#C0_4b_a5754243fa" y="267.3"/>
    </g>
    <g clip-path="url(#pdbf2c17509)">
     <use style="fill:none;stroke:#000000;stroke-width:0.75;" x="0.0" xlink:href="#C0_4c_c33ea97c96" y="267.3"/>
    </g>
    <g clip-path="url(#pdbf2c17509)">
     <use style="fill:none;stroke:#000000;stroke-width:0.75;" x="0.0" xlink:href="#C0_4d_e28c892a49" y="267.3"/>
    </g>
    <g clip-path="url(#pdbf2c17509)">
     <use style="fill:none;stroke:#000000;stroke-width:0.75;" x="0.0" xlink:href="#C0_4e_cd6c6b2c5c" y="267.3"/>
    </g>
    <g clip-path="url(#pdbf2c17509)">
     <use style="fill:none;stroke:#000000;stroke-width:0.75;" x="0.0" xlink:href="#C0_4f_36ec432abd" y="267.3"/>
    </g>
    <g clip-path="url(#pdbf2c17509)">
     <use style="fill:none;stroke:#000000;stroke-width:0.75;" x="0.0" xlink:href="#C0_50_8f0a696a2b" y="267.3"/>
    </g>
    <g clip-path="url(#pdbf2c17509)">
     <use style="fill:none;stroke:#000000;stroke-width:0.75;" x="0.0" xlink:href="#C0_51_6e1ae9e047" y="267.3"/>
    </g>
    <g clip-path="url(#pdbf2c17509)">
     <use style="fill:none;stroke:#000000;stroke-width:0.75;" x="0.0" xlink:href="#C0_52_2e4a244852" y="267.3"/>
    </g>
    <g clip-path="url(#pdbf2c17509)">
     <use style="fill:none;stroke:#000000;stroke-width:0.75;" x="0.0" xlink:href="#C0_53_e10f45688d" y="267.3"/>
    </g>
    <g clip-path="url(#pdbf2c17509)">
     <use style="fill:none;stroke:#000000;stroke-width:0.75;" x="0.0" xlink:href="#C0_54_40290f7522" y="267.3"/>
    </g>
    <g clip-path="url(#pdbf2c17509)">
     <use style="fill:none;stroke:#000000;stroke-width:0.75;" x="0.0" xlink:href="#C0_55_4dde2c750a" y="267.3"/>
    </g>
    <g clip-path="url(#pdbf2c17509)">
     <use style="fill:none;stroke:#000000;stroke-width:0.75;" x="0.0" xlink:href="#C0_56_fb06ed1c71" y="267.3"/>
    </g>
    <g clip-path="url(#pdbf2c17509)">
     <use style="fill:none;stroke:#000000;stroke-width:0.75;" x="0.0" xlink:href="#C0_57_4646391de0" y="267.3"/>
    </g>
    <g clip-path="url(#pdbf2c17509)">
     <use style="fill:none;stroke:#000000;stroke-width:0.75;" x="0.0" xlink:href="#C0_58_360a6288dc" y="267.3"/>
    </g>
    <g clip-path="url(#pdbf2c17509)">
     <use style="fill:none;stroke:#000000;stroke-width:0.75;" x="0.0" xlink:href="#C0_59_1b6a1d5982" y="267.3"/>
    </g>
    <g clip-path="url(#pdbf2c17509)">
     <use style="fill:none;stroke:#000000;stroke-width:0.75;" x="0.0" xlink:href="#C0_5a_0f1d46db56" y="267.3"/>
    </g>
    <g clip-path="url(#pdbf2c17509)">
     <use style="fill:none;stroke:#000000;stroke-width:0.75;" x="0.0" xlink:href="#C0_5b_924155833a" y="267.3"/>
    </g>
    <g clip-path="url(#pdbf2c17509)">
     <use style="fill:none;stroke:#000000;stroke-width:0.75;" x="0.0" xlink:href="#C0_5c_e8e2d48d47" y="267.3"/>
    </g>
    <g clip-path="url(#pdbf2c17509)">
     <use style="fill:none;stroke:#000000;stroke-width:0.75;" x="0.0" xlink:href="#C0_5d_896f976f28" y="267.3"/>
    </g>
    <g clip-path="url(#pdbf2c17509)">
     <use style="fill:none;stroke:#000000;stroke-width:0.75;" x="0.0" xlink:href="#C0_5e_d0bebc11d5" y="267.3"/>
    </g>
    <g clip-path="url(#pdbf2c17509)">
     <use style="fill:none;stroke:#000000;stroke-width:0.75;" x="0.0" xlink:href="#C0_5f_17d2e1981f" y="267.3"/>
    </g>
    <g clip-path="url(#pdbf2c17509)">
     <use style="fill:none;stroke:#000000;stroke-width:0.75;" x="0.0" xlink:href="#C0_60_7db1e1080b" y="267.3"/>
    </g>
    <g clip-path="url(#pdbf2c17509)">
     <use style="fill:none;stroke:#000000;stroke-width:0.75;" x="0.0" xlink:href="#C0_61_4540826250" y="267.3"/>
    </g>
   </g>
   <g id="matplotlib.axis_1"/>
   <g id="matplotlib.axis_2"/>
   <g id="PathCollection_1">
    <defs>
     <path d="
M0 2.23607
C0.593012 2.23607 1.16182 2.00046 1.58114 1.58114
C2.00046 1.16182 2.23607 0.593012 2.23607 0
C2.23607 -0.593012 2.00046 -1.16182 1.58114 -1.58114
C1.16182 -2.00046 0.593012 -2.23607 0 -2.23607
C-0.593012 -2.23607 -1.16182 -2.00046 -1.58114 -1.58114
C-2.00046 -1.16182 -2.23607 -0.593012 -2.23607 0
C-2.23607 0.593012 -2.00046 1.16182 -1.58114 1.58114
C-1.16182 2.00046 -0.593012 2.23607 0 2.23607
z
" id="C1_0_919e3f95db"/>
    </defs>
    <g clip-path="url(#pdbf2c17509)">
     <use style="fill:#ffffff;stroke:#000000;stroke-width:0.5;" x="42.8127906977" xlink:href="#C1_0_919e3f95db" y="133.650007941"/>
    </g>
    <g clip-path="url(#pdbf2c17509)">
     <use style="fill:#ffffff;stroke:#000000;stroke-width:0.5;" x="43.5012913046" xlink:href="#C1_0_919e3f95db" y="144.812836306"/>
    </g>
    <g clip-path="url(#pdbf2c17509)">
     <use style="fill:#ffffff;stroke:#000000;stroke-width:0.5;" x="45.5563542081" xlink:href="#C1_0_919e3f95db" y="155.80644748"/>
    </g>
    <g clip-path="url(#pdbf2c17509)">
     <use style="fill:#ffffff;stroke:#000000;stroke-width:0.5;" x="48.9468267546" xlink:href="#C1_0_919e3f95db" y="166.464189553"/>
    </g>
    <g clip-path="url(#pdbf2c17509)">
     <use style="fill:#ffffff;stroke:#000000;stroke-width:0.5;" x="53.6213128452" xlink:href="#C1_0_919e3f95db" y="176.624502046"/>
    </g>
    <g clip-path="url(#pdbf2c17509)">
     <use style="fill:#ffffff;stroke:#000000;stroke-width:0.5;" x="59.508952048" xlink:href="#C1_0_919e3f95db" y="186.133365007"/>
    </g>
    <g clip-path="url(#pdbf2c17509)">
     <use style="fill:#ffffff;stroke:#000000;stroke-width:0.5;" x="66.5204937694" xlink:href="#C1_0_919e3f95db" y="194.846633789"/>
    </g>
    <g clip-path="url(#pdbf2c17509)">
     <use style="fill:#ffffff;stroke:#000000;stroke-width:0.5;" x="74.5496502024" xlink:href="#C1_0_919e3f95db" y="202.632224142"/>
    </g>
    <g clip-path="url(#pdbf2c17509)">
     <use style="fill:#ffffff;stroke:#000000;stroke-width:0.5;" x="83.4746894872" xlink:href="#C1_0_919e3f95db" y="209.372102512"/>
    </g>
    <g clip-path="url(#pdbf2c17509)">
     <use style="fill:#ffffff;stroke:#000000;stroke-width:0.5;" x="93.1603710363" xlink:href="#C1_0_919e3f95db" y="214.964134935"/>
    </g>
    <g clip-path="url(#pdbf2c17509)">
     <use style="fill:#ffffff;stroke:#000000;stroke-width:0.5;" x="103.459836355" xlink:href="#C1_0_919e3f95db" y="219.323523407"/>
    </g>
    <g clip-path="url(#pdbf2c17509)">
     <use style="fill:#ffffff;stroke:#000000;stroke-width:0.5;" x="114.216913159" xlink:href="#C1_0_919e3f95db" y="222.384174531"/>
    </g>
    <g clip-path="url(#pdbf2c17509)">
     <use style="fill:#ffffff;stroke:#000000;stroke-width:0.5;" x="125.268617691" xlink:href="#C1_0_919e3f95db" y="224.099715447"/>
    </g>
    <g clip-path="url(#pdbf2c17509)">
     <use style="fill:#ffffff;stroke:#000000;stroke-width:0.5;" x="136.44733261" xlink:href="#C1_0_919e3f95db" y="224.444127145"/>
    </g>
    <g clip-path="url(#pdbf2c17509)">
     <use style="fill:#ffffff;stroke:#000000;stroke-width:0.5;" x="147.583685792" xlink:href="#C1_0_919e3f95db" y="223.41219134"/>
    </g>
    <g clip-path="url(#pdbf2c17509)">
     <use style="fill:#ffffff;stroke:#000000;stroke-width:0.5;" x="158.508776059" xlink:href="#C1_0_919e3f95db" y="221.019559039"/>
    </g>
    <g clip-path="url(#pdbf2c17509)">
     <use style="fill:#ffffff;stroke:#000000;stroke-width:0.5;" x="169.05707403" xlink:href="#C1_0_919e3f95db" y="217.302481747"/>
    </g>
    <g clip-path="url(#pdbf2c17509)">
     <use style="fill:#ffffff;stroke:#000000;stroke-width:0.5;" x="179.068597358" xlink:href="#C1_0_919e3f95db" y="212.317335076"/>
    </g>
    <g clip-path="url(#pdbf2c17509)">
     <use style="fill:#ffffff;stroke:#000000;stroke-width:0.5;" x="188.391658392" xlink:href="#C1_0_919e3f95db" y="206.139650505"/>
    </g>
    <g clip-path="url(#pdbf2c17509)">
     <use style="fill:#ffffff;stroke:#000000;stroke-width:0.5;" x="106.65691322" xlink:href="#C1_0_919e3f95db" y="187.859424906"/>
    </g>
    <g clip-path="url(#pdbf2c17509)">
     <use style="fill:#ffffff;stroke:#000000;stroke-width:0.5;" x="196.884857524" xlink:href="#C1_0_919e3f95db" y="198.863122819"/>
    </g>
    <g clip-path="url(#pdbf2c17509)">
     <use style="fill:#ffffff;stroke:#000000;stroke-width:0.5;" x="204.419511699" xlink:href="#C1_0_919e3f95db" y="190.598000911"/>
    </g>
    <g clip-path="url(#pdbf2c17509)">
     <use style="fill:#ffffff;stroke:#000000;stroke-width:0.5;" x="210.88134545" xlink:href="#C1_0_919e3f95db" y="181.469638997"/>
    </g>
    <g clip-path="url(#pdbf2c17509)">
     <use style="fill:#ffffff;stroke:#000000;stroke-width:0.5;" x="180.829675872" xlink:href="#C1_0_919e3f95db" y="171.615335072"/>
    </g>
    <g clip-path="url(#pdbf2c17509)">
     <use style="fill:#ffffff;stroke:#000000;stroke-width:0.5;" x="216.172453561" xlink:href="#C1_0_919e3f95db" y="171.616343677"/>
    </g>
    <g clip-path="url(#pdbf2c17509)">
     <use style="fill:#ffffff;stroke:#000000;stroke-width:0.5;" x="220.212587642" xlink:href="#C1_0_919e3f95db" y="161.187556438"/>
    </g>
    <g clip-path="url(#pdbf2c17509)">
     <use style="fill:#ffffff;stroke:#000000;stroke-width:0.5;" x="190.118784368" xlink:href="#C1_0_919e3f95db" y="155.526125674"/>
    </g>
    <g clip-path="url(#pdbf2c17509)">
     <use style="fill:#ffffff;stroke:#000000;stroke-width:0.5;" x="222.940534388" xlink:href="#C1_0_919e3f95db" y="150.341287022"/>
    </g>
    <g clip-path="url(#pdbf2c17509)">
     <use style="fill:#ffffff;stroke:#000000;stroke-width:0.5;" x="193.1770247" xlink:href="#C1_0_919e3f95db" y="144.777525013"/>
    </g>
    <g clip-path="url(#pdbf2c17509)">
     <use style="fill:#ffffff;stroke:#000000;stroke-width:0.5;" x="224.314919985" xlink:href="#C1_0_919e3f95db" y="139.242037007"/>
    </g>
    <g clip-path="url(#pdbf2c17509)">
     <use style="fill:#ffffff;stroke:#000000;stroke-width:0.5;" x="194.093281792" xlink:href="#C1_0_919e3f95db" y="137.378024782"/>
    </g>
    <g clip-path="url(#pdbf2c17509)">
     <use style="fill:#ffffff;stroke:#000000;stroke-width:0.5;" x="224.314920696" xlink:href="#C1_0_919e3f95db" y="128.057974521"/>
    </g>
    <g clip-path="url(#pdbf2c17509)">
     <use style="fill:#ffffff;stroke:#000000;stroke-width:0.5;" x="194.093282266" xlink:href="#C1_0_919e3f95db" y="129.921982903"/>
    </g>
    <g clip-path="url(#pdbf2c17509)">
     <use style="fill:#ffffff;stroke:#000000;stroke-width:0.5;" x="150.375092569" xlink:href="#C1_0_919e3f95db" y="158.890709166"/>
    </g>
    <g clip-path="url(#pdbf2c17509)">
     <use style="fill:#ffffff;stroke:#000000;stroke-width:0.5;" x="222.940536511" xlink:href="#C1_0_919e3f95db" y="116.958724331"/>
    </g>
    <g clip-path="url(#pdbf2c17509)">
     <use style="fill:#ffffff;stroke:#000000;stroke-width:0.5;" x="220.212591143" xlink:href="#C1_0_919e3f95db" y="106.112454568"/>
    </g>
    <g clip-path="url(#pdbf2c17509)">
     <use style="fill:#ffffff;stroke:#000000;stroke-width:0.5;" x="216.172458388" xlink:href="#C1_0_919e3f95db" y="95.6836668156"/>
    </g>
    <g clip-path="url(#pdbf2c17509)">
     <use style="fill:#ffffff;stroke:#000000;stroke-width:0.5;" x="210.88135153" xlink:href="#C1_0_919e3f95db" y="85.830370823"/>
    </g>
    <g clip-path="url(#pdbf2c17509)">
     <use style="fill:#ffffff;stroke:#000000;stroke-width:0.5;" x="204.419491785" xlink:href="#C1_0_919e3f95db" y="76.7019743417"/>
    </g>
    <g clip-path="url(#pdbf2c17509)">
     <use style="fill:#ffffff;stroke:#000000;stroke-width:0.5;" x="196.884865815" xlink:href="#C1_0_919e3f95db" y="68.4368852212"/>
    </g>
    <g clip-path="url(#pdbf2c17509)">
     <use style="fill:#ffffff;stroke:#000000;stroke-width:0.5;" x="188.391633043" xlink:href="#C1_0_919e3f95db" y="61.1603303521"/>
    </g>
    <g clip-path="url(#pdbf2c17509)">
     <use style="fill:#ffffff;stroke:#000000;stroke-width:0.5;" x="179.06860736" xlink:href="#C1_0_919e3f95db" y="54.9826706992"/>
    </g>
    <g clip-path="url(#pdbf2c17509)">
     <use style="fill:#ffffff;stroke:#000000;stroke-width:0.5;" x="169.057044778" xlink:href="#C1_0_919e3f95db" y="49.9975058714"/>
    </g>
    <g clip-path="url(#pdbf2c17509)">
     <use style="fill:#ffffff;stroke:#000000;stroke-width:0.5;" x="158.508787167" xlink:href="#C1_0_919e3f95db" y="46.2804441215"/>
    </g>
    <g clip-path="url(#pdbf2c17509)">
     <use style="fill:#ffffff;stroke:#000000;stroke-width:0.5;" x="147.583654403" xlink:href="#C1_0_919e3f95db" y="43.8878037879"/>
    </g>
    <g clip-path="url(#pdbf2c17509)">
     <use style="fill:#ffffff;stroke:#000000;stroke-width:0.5;" x="175.806578467" xlink:href="#C1_0_919e3f95db" y="90.1745888518"/>
    </g>
    <g clip-path="url(#pdbf2c17509)">
     <use style="fill:#ffffff;stroke:#000000;stroke-width:0.5;" x="136.447344154" xlink:href="#C1_0_919e3f95db" y="42.8558732102"/>
    </g>
    <g clip-path="url(#pdbf2c17509)">
     <use style="fill:#ffffff;stroke:#000000;stroke-width:0.5;" x="135.514896158" xlink:href="#C1_0_919e3f95db" y="73.1205803362"/>
    </g>
    <g clip-path="url(#pdbf2c17509)">
     <use style="fill:#ffffff;stroke:#000000;stroke-width:0.5;" x="145.452348611" xlink:href="#C1_0_919e3f95db" y="105.765834459"/>
    </g>
    <g clip-path="url(#pdbf2c17509)">
     <use style="fill:#ffffff;stroke:#000000;stroke-width:0.5;" x="125.268586061" xlink:href="#C1_0_919e3f95db" y="43.200287484"/>
    </g>
    <g clip-path="url(#pdbf2c17509)">
     <use style="fill:#ffffff;stroke:#000000;stroke-width:0.5;" x="114.216924441" xlink:href="#C1_0_919e3f95db" y="44.9158229984"/>
    </g>
    <g clip-path="url(#pdbf2c17509)">
     <use style="fill:#ffffff;stroke:#000000;stroke-width:0.5;" x="103.459847248" xlink:href="#C1_0_919e3f95db" y="47.9764727548"/>
    </g>
    <g clip-path="url(#pdbf2c17509)">
     <use style="fill:#ffffff;stroke:#000000;stroke-width:0.5;" x="93.1603426015" xlink:href="#C1_0_919e3f95db" y="52.3358792239"/>
    </g>
    <g clip-path="url(#pdbf2c17509)">
     <use style="fill:#ffffff;stroke:#000000;stroke-width:0.5;" x="83.474699115" xlink:href="#C1_0_919e3f95db" y="57.9278911088"/>
    </g>
    <g clip-path="url(#pdbf2c17509)">
     <use style="fill:#ffffff;stroke:#000000;stroke-width:0.5;" x="113.523230899" xlink:href="#C1_0_919e3f95db" y="76.5343134677"/>
    </g>
    <g clip-path="url(#pdbf2c17509)">
     <use style="fill:#ffffff;stroke:#000000;stroke-width:0.5;" x="74.5496589732" xlink:href="#C1_0_919e3f95db" y="64.6677683432"/>
    </g>
    <g clip-path="url(#pdbf2c17509)">
     <use style="fill:#ffffff;stroke:#000000;stroke-width:0.5;" x="66.5205161407" xlink:href="#C1_0_919e3f95db" y="72.4533416711"/>
    </g>
    <g clip-path="url(#pdbf2c17509)">
     <use style="fill:#ffffff;stroke:#000000;stroke-width:0.5;" x="91.4934336258" xlink:href="#C1_0_919e3f95db" y="90.1745771263"/>
    </g>
    <g clip-path="url(#pdbf2c17509)">
     <use style="fill:#ffffff;stroke:#000000;stroke-width:0.5;" x="117.710118938" xlink:href="#C1_0_919e3f95db" y="107.906217986"/>
    </g>
    <g clip-path="url(#pdbf2c17509)">
     <use style="fill:#ffffff;stroke:#000000;stroke-width:0.5;" x="59.508933695" xlink:href="#C1_0_919e3f95db" y="81.1666609199"/>
    </g>
    <g clip-path="url(#pdbf2c17509)">
     <use style="fill:#ffffff;stroke:#000000;stroke-width:0.5;" x="53.6213080634" xlink:href="#C1_0_919e3f95db" y="90.6755068588"/>
    </g>
    <g clip-path="url(#pdbf2c17509)">
     <use style="fill:#ffffff;stroke:#000000;stroke-width:0.5;" x="48.9468309268" xlink:href="#C1_0_919e3f95db" y="100.835799678"/>
    </g>
    <g clip-path="url(#pdbf2c17509)">
     <use style="fill:#ffffff;stroke:#000000;stroke-width:0.5;" x="45.5563623077" xlink:href="#C1_0_919e3f95db" y="111.493520316"/>
    </g>
    <g clip-path="url(#pdbf2c17509)">
     <use style="fill:#ffffff;stroke:#000000;stroke-width:0.5;" x="43.5012874011" xlink:href="#C1_0_919e3f95db" y="122.487195218"/>
    </g>
    <g clip-path="url(#pdbf2c17509)">
     <use style="fill:#ffffff;stroke:#000000;stroke-width:0.5;" x="77.1812189349" xlink:href="#C1_0_919e3f95db" y="111.7738658"/>
    </g>
    <g clip-path="url(#pdbf2c17509)">
     <use style="fill:#ffffff;stroke:#000000;stroke-width:0.5;" x="105.415609467" xlink:href="#C1_0_919e3f95db" y="122.7119329"/>
    </g>
   </g>
  </g>
 </g>
 <defs>
  <clipPath id="pdbf2c17509">
   <path d="
M133.65 231.3
C159.547 231.3 184.387 221.011 202.699 202.699
C221.011 184.387 231.3 159.547 231.3 133.65
C231.3 107.753 221.011 82.913 202.699 64.601
C184.387 46.289 159.547 36 133.65 36
C107.753 36 82.913 46.289 64.601 64.601
C46.289 82.913 36 107.753 36 133.65
C36 159.547 46.289 184.387 64.601 202.699
C82.913 221.011 107.753 231.3 133.65 231.3
z
"/>
  </clipPath>
 </defs>
</svg>
